<?xml version="1.0" encoding="UTF-8"?>
<svg xmlns="http://www.w3.org/2000/svg" version="1.1" viewBox="0 0 405.8 70.9">
  <defs>
    <style>
      .cls-1 {
        fill: #e50013;
      }

      .cls-2 {
        fill: #231916;
      }
    </style>
  </defs>
  <!-- Generator: Adobe Illustrator 28.6.0, SVG Export Plug-In . SVG Version: 1.2.0 Build 709)  -->
  <g>
    <g id="Layer_1">
      <g>
        <path class="cls-1" d="M161.5,3.8C132.5-13.2,51.5,30,0,69.2l.6.8C65.1,26.5,120,13,134.1,25.2c.3.3.6.6.9.9-9.5,1.4-20.3,3.6-31.5,6.6-36.1,9.7-63.7,23.9-61.5,31.8,2.1,7.9,33.1,6.5,69.2-3.2,6-1.6,11.7-3.3,17.1-5.1-4,5.7-8.3,10.7-10.7,13.5h43.8c11.1-25.3,19.3-54.6.1-65.8ZM130,54.9c3.6-5.5,6.2-10.4,7.5-14.7.7-2.3,1-4.4,1-6.4,0-2.8-.7-5.2-2.2-7.2,10-1.4,18.5-1.8,24.8-1.3,6.4.5,10.3,2.1,10.9,4.4,0,.2,0,.4,0,.7,0,5.2-14,14.9-42.1,24.5Z"/>
        <g>
          <path class="cls-2" d="M220.8,46.6h-14.5l15.1-27.6h.2l-.8,27.6ZM172.9,69.7h20.8l6.4-11.8h20.4l-.3,11.8h20.8l-3.1-61.9h-25.1l-39.8,61.9Z"/>
          <path class="cls-2" d="M264.5,7.7h20l-18.1,61.9h-20l18.1-61.9Z"/>
          <path class="cls-2" d="M297.5,50.8l-.6,2.2c-1.4,4.7-.6,8.2,6.3,8.2s10.2-3.8,11.2-7.4c3.9-13.4-34.9-5.9-28.1-29,2.9-9.9,12.6-18.2,33.2-18.2s25,7.4,22.3,16.9l-.4,1.5h-19.3c.9-2.9,1-5.1.2-6.5-.8-1.5-2.5-2.2-5.5-2.2-5,0-8.6,2.2-9.9,6.7-3.8,12.9,34.7,6.4,28.4,28.3-4.1,14-16.5,19.7-34.9,19.7s-27.1-3.2-23.3-16.1l1.2-4h19.3Z"/>
          <path class="cls-2" d="M364.5,19.5h-17.9l3.4-11.8h55.8l-3.4,11.8h-17.9l-14.7,50.1h-20l14.7-50.1Z"/>
        </g>
      </g>
    </g>
  </g>
</svg>